<svg xmlns="http://www.w3.org/2000/svg" xmlns:xlink="http://www.w3.org/1999/xlink" width="723.012" height="228.617" viewBox="0 0 723.012 228.617">
  <defs>
    <linearGradient id="linear-gradient" x1="0.489" x2="0.296" y2="0.938" gradientUnits="objectBoundingBox">
      <stop offset="0" stop-color="#fff" stop-opacity="0"/>
      <stop offset="1" stop-color="#ebf9ff"/>
    </linearGradient>
    <clipPath id="clip-path">
      <rect id="Rectangle_3" data-name="Rectangle 3" width="68.585" height="137.17" transform="translate(0)" fill="#fff"/>
    </clipPath>
    <clipPath id="clip-path-2">
      <rect id="Rectangle_4" data-name="Rectangle 4" width="68.585" height="137.17" transform="translate(0)" fill="url(#linear-gradient)"/>
    </clipPath>
    <clipPath id="clip-path-3">
      <rect id="Rectangle_5" data-name="Rectangle 5" width="34.293" height="68.585" transform="translate(0)" fill="#bbb"/>
    </clipPath>
    <clipPath id="clip-path-4">
      <rect id="Rectangle_10" data-name="Rectangle 10" width="24.62" height="68.585" fill="#bbb"/>
    </clipPath>
  </defs>
  <g id="creabik" transform="translate(-244.383 -463)">
    <g id="Group_25" data-name="Group 25" transform="translate(-36.617 30)">
      <path id="Path_1340" data-name="Path 1340" d="M114.309,0A114.309,114.309,0,1,1,0,114.309,114.309,114.309,0,0,1,114.309,0Z" transform="translate(281 433)"/>
      <g id="Mask_Group_1" data-name="Mask Group 1" transform="translate(336.396 478.723)" clip-path="url(#clip-path)">
        <circle id="Ellipse_2" data-name="Ellipse 2" cx="68.585" cy="68.585" r="68.585" transform="translate(0)" fill="#fff"/>
      </g>
      <g id="Mask_Group_2" data-name="Mask Group 2" transform="translate(336.396 478.723)" clip-path="url(#clip-path-2)">
        <circle id="Ellipse_3" data-name="Ellipse 3" cx="68.585" cy="68.585" r="68.585" transform="translate(0)" fill="url(#linear-gradient)"/>
      </g>
      <g id="Mask_Group_3" data-name="Mask Group 3" transform="translate(404.981 547.308)" clip-path="url(#clip-path-3)">
        <circle id="Ellipse_4" data-name="Ellipse 4" cx="34.293" cy="34.293" r="34.293" transform="translate(-34.293)" fill="#bbb"/>
      </g>
      <g id="Mask_Group_6" data-name="Mask Group 6" transform="translate(404.981 547.308)" clip-path="url(#clip-path-4)">
        <circle id="Ellipse_7" data-name="Ellipse 7" cx="25.939" cy="25.939" r="25.939" transform="translate(-27.258)" fill="#e8e8e8"/>
      </g>
    </g>
    <g id="Group_26" data-name="Group 26" transform="translate(-138 -28.569)">
      <path id="Path_2" data-name="Path 2" d="M37.7-84.137a31.917,31.917,0,0,0-22.252,8.5C9.326-70.011,6.2-62.76,6.2-53.884s3.125,16.251,9.251,22A31.474,31.474,0,0,0,37.7-23.257c9.876,0,18.876-4.125,24.377-11.5l-12.251-9A14.221,14.221,0,0,1,37.7-37.883a16.469,16.469,0,0,1-11.5-4.5,15.207,15.207,0,0,1-4.875-11.5A14.053,14.053,0,0,1,26.2-65.01a16.926,16.926,0,0,1,11.5-4.375c5.25,0,9.251,1.875,12.126,5.75l12.126-9.126C56.455-79.886,47.579-84.137,37.7-84.137Zm52.5,39q0-24.752,14.626-24.752a20.859,20.859,0,0,1,8.876,1.625l2.625-13.751a20.655,20.655,0,0,0-9.626-2.125c-7.126,0-13.626,5-16.5,15V-82.887H74.956v58.379H90.207Zm91.132-8.751c0-9-2.875-16.251-8.5-21.877s-12.626-8.376-21.127-8.376a29.809,29.809,0,0,0-21.5,8.376c-5.875,5.625-8.751,12.876-8.751,21.877s2.875,16.376,8.751,22.127a29.915,29.915,0,0,0,21.5,8.5c11.626,0,22.252-4.625,27.252-14.126l-11.626-6.25c-2.625,4.875-8.5,7.5-14.626,7.5-8.626,0-15.126-4.875-16.126-12.5h44.5C181.214-50.509,181.339-52.259,181.339-53.884ZM136.461-59.01c1.125-7.626,7.251-12.376,15.376-12.376,7.626,0,13.5,4.5,14.626,12.376Zm117.259,34.5V-82.887H238.468v7.251c-3.875-5.875-11.626-8.5-18.126-8.5a29.378,29.378,0,0,0-21,8.5c-5.875,5.625-8.751,12.876-8.751,21.877s3,16.376,8.876,22a29.18,29.18,0,0,0,20.877,8.376c6.5,0,14.626-3.125,18.126-8.626v7.5ZM238.468-53.759c.625,14.5-18.126,20.627-27.377,11.376a15.086,15.086,0,0,1-4.75-11.376,14.625,14.625,0,0,1,4.75-11.251,16.172,16.172,0,0,1,11.376-4.5,15.894,15.894,0,0,1,11.126,4.25C236.843-62.385,238.468-58.635,238.468-53.759Zm63.5,15.876c-8.5,0-15.5-6.5-15.5-16,0-4.75,1.5-8.5,4.625-11.376a15.634,15.634,0,0,1,10.876-4.375c8.626,0,15.376,6.375,15.376,15.751C317.349-44.384,310.6-37.883,301.973-37.883Zm-15.751,5.5c3,5.625,10.376,9.126,18.251,9.126a27.561,27.561,0,0,0,20.251-8.376c5.625-5.625,8.376-13,8.376-22,0-9.126-2.75-16.376-8.376-22a27.678,27.678,0,0,0-20.251-8.5c-8,0-15.251,3.375-18.251,9v-39.5H270.971v90.132h15.251Zm60.5-50.5v58.379h15.126V-82.887Zm7.626-13.376a9.4,9.4,0,0,0,9.626-9.251,9.294,9.294,0,0,0-9.626-9.126c-5.375,0-9.876,4-9.876,9.126S348.851-96.263,354.352-96.263Zm81.006,71.755L405.606-57.26l24.5-25.627H410.356l-16.126,17.5v-49.254H379.1v90.132H394.23v-25l22,25Z" transform="translate(644.896 659.639)" fill="#fff"/>
      <path id="Path_5" data-name="Path 5" d="M4.834-11.7V.725H7.107V-11.7h4.274V-13.78H.56V-11.7ZM16.539-13.78H14.56L12.792.725h2.232L16.265-9.633,20.539-.9h1.895l4.253-8.737L27.928.725H30.16L28.392-13.78h-2L21.465-3.443Z" transform="translate(1075.235 558.801)" fill="#fff"/>
    </g>
  </g>
</svg>
