<svg xmlns="http://www.w3.org/2000/svg" width="173.021" height="39.289" viewBox="0 0 173.021 39.289">
  <g id="victim-logo-dark" transform="translate(-232 -56.05)">
    <path id="Path_17" data-name="Path 17" d="M1.99,11.847h9.431v-27.38H1.99Zm28.909.9c7.71,0,13.561-5.011,14.627-12.446H36.259A5.518,5.518,0,0,1,30.9,4.293c-3.285,0-5.673-2.577-5.673-6.144S27.584-7.937,30.9-7.937a5.558,5.558,0,0,1,5.34,3.683h9.186c-1.031-7.283-6.8-12.134-14.5-12.134-8.839,0-15.148,6.035-15.148,14.507S22.118,12.744,30.9,12.744ZM64.192,3.587A2.9,2.9,0,0,1,61.019.443V-8.27h6.641v-7.263H60.781v-8.005H58.843L46.576-10.474v2.2h5.012V2.061c0,6.084,3.68,9.786,9.735,9.786h6.489V3.587Zm8.022,8.26h9.431v-27.38H72.214Zm47.6-28.189a10.677,10.677,0,0,0-8.408,4.031,9.219,9.219,0,0,0-7.852-4.031,10.556,10.556,0,0,0-8,3.752l-1.343-2.942H87.577v27.38h9.431V-3.166c0-3.4,1.4-5.233,3.958-5.233,1.974,0,3.019,1.466,3.019,4.239V11.847h9.185V-3.166c0-3.448,1.329-5.233,3.921-5.233,2,0,3.056,1.38,3.056,4.239V11.847h9.431V-5.326C129.578-11.773,125.68-16.342,119.815-16.342Z" transform="translate(275.444 79.587)"/>
    <g id="Group_2" data-name="Group 2" transform="translate(232 56.155)">
      <path id="Rectangle_2" data-name="Rectangle 2" d="M4.837,0H23.315a6.771,6.771,0,0,1,6.771,6.771v.967a1.935,1.935,0,0,1-1.935,1.935H4.837A4.837,4.837,0,0,1,0,4.837v0A4.837,4.837,0,0,1,4.837,0Z" transform="matrix(0.574, -0.819, 0.819, 0.574, 15.876, 33.617)" fill="#f06"/>
      <path id="Rectangle_12" data-name="Rectangle 12" d="M4.837,0H17.485a6.771,6.771,0,0,1,6.771,6.771v.967a1.935,1.935,0,0,1-1.935,1.935H4.837A4.837,4.837,0,0,1,0,4.837v0A4.837,4.837,0,0,1,4.837,0Z" transform="translate(2.735 2.052)" fill="#f06"/>
      <path id="Rectangle_3" data-name="Rectangle 3" d="M6,0H35.659a4,4,0,0,1,4,4v.678a5,5,0,0,1-5,5H3a3,3,0,0,1-3-3V6A6,6,0,0,1,6,0Z" transform="translate(8.381 0) rotate(60)" fill="#f06"/>
    </g>
  </g>
</svg>
